<svg width="173" height="18" viewBox="0 0 173 18" fill="none" xmlns="http://www.w3.org/2000/svg">
<path d="M0.592 7.416C0.592 6.328 0.842667 5.352 1.344 4.488C1.856 3.624 2.544 2.952 3.408 2.472C4.28267 1.98133 5.23733 1.736 6.272 1.736C7.456 1.736 8.50667 2.02933 9.424 2.616C10.352 3.192 11.024 4.01333 11.44 5.08H9.248C8.96 4.49333 8.56 4.056 8.048 3.768C7.536 3.48 6.944 3.336 6.272 3.336C5.536 3.336 4.88 3.50133 4.304 3.832C3.728 4.16267 3.27467 4.63733 2.944 5.256C2.624 5.87467 2.464 6.59467 2.464 7.416C2.464 8.23733 2.624 8.95733 2.944 9.576C3.27467 10.1947 3.728 10.6747 4.304 11.016C4.88 11.3467 5.536 11.512 6.272 11.512C6.944 11.512 7.536 11.368 8.048 11.08C8.56 10.792 8.96 10.3547 9.248 9.768H11.44C11.024 10.8347 10.352 11.656 9.424 12.232C8.50667 12.808 7.456 13.096 6.272 13.096C5.22667 13.096 4.272 12.856 3.408 12.376C2.544 11.8853 1.856 11.208 1.344 10.344C0.842667 9.48 0.592 8.504 0.592 7.416ZM17.399 13.144C16.567 13.144 15.815 12.9573 15.143 12.584C14.471 12.2 13.943 11.6667 13.559 10.984C13.175 10.2907 12.983 9.49067 12.983 8.584C12.983 7.688 13.1803 6.89333 13.575 6.2C13.9697 5.50667 14.5083 4.97333 15.191 4.6C15.8737 4.22667 16.6363 4.04 17.479 4.04C18.3217 4.04 19.0843 4.22667 19.767 4.6C20.4497 4.97333 20.9883 5.50667 21.383 6.2C21.7777 6.89333 21.975 7.688 21.975 8.584C21.975 9.48 21.7723 10.2747 21.367 10.968C20.9617 11.6613 20.407 12.2 19.703 12.584C19.0097 12.9573 18.2417 13.144 17.399 13.144ZM17.399 11.56C17.8683 11.56 18.3057 11.448 18.711 11.224C19.127 11 19.463 10.664 19.719 10.216C19.975 9.768 20.103 9.224 20.103 8.584C20.103 7.944 19.9803 7.40533 19.735 6.968C19.4897 6.52 19.1643 6.184 18.759 5.96C18.3537 5.736 17.9163 5.624 17.447 5.624C16.9777 5.624 16.5403 5.736 16.135 5.96C15.7403 6.184 15.4257 6.52 15.191 6.968C14.9563 7.40533 14.839 7.944 14.839 8.584C14.839 9.53333 15.079 10.2693 15.559 10.792C16.0497 11.304 16.663 11.56 17.399 11.56ZM28.2261 4.04C28.9195 4.04 29.5381 4.184 30.0821 4.472C30.6368 4.76 31.0688 5.18667 31.3781 5.752C31.6875 6.31733 31.8421 7 31.8421 7.8V13H30.0341V8.072C30.0341 7.28267 29.8368 6.68 29.4421 6.264C29.0475 5.83733 28.5088 5.624 27.8261 5.624C27.1435 5.624 26.5995 5.83733 26.1941 6.264C25.7995 6.68 25.6021 7.28267 25.6021 8.072V13H23.7781V4.184H25.6021V5.192C25.9008 4.82933 26.2795 4.54667 26.7381 4.344C27.2075 4.14133 27.7035 4.04 28.2261 4.04ZM36.2968 5.672V10.552C36.2968 10.8827 36.3714 11.1227 36.5208 11.272C36.6808 11.4107 36.9474 11.48 37.3208 11.48H38.4408V13H37.0008C36.1794 13 35.5501 12.808 35.1128 12.424C34.6754 12.04 34.4568 11.416 34.4568 10.552V5.672H33.4168V4.184H34.4568V1.992H36.2968V4.184H38.4408V5.672H36.2968ZM41.0499 3.016C40.7192 3.016 40.4419 2.904 40.2179 2.68C39.9939 2.456 39.8819 2.17867 39.8819 1.848C39.8819 1.51733 39.9939 1.24 40.2179 1.016C40.4419 0.791999 40.7192 0.679999 41.0499 0.679999C41.3699 0.679999 41.6419 0.791999 41.8659 1.016C42.0899 1.24 42.2019 1.51733 42.2019 1.848C42.2019 2.17867 42.0899 2.456 41.8659 2.68C41.6419 2.904 41.3699 3.016 41.0499 3.016ZM41.9459 4.184V13H40.1219V4.184H41.9459ZM48.7886 4.04C49.482 4.04 50.1006 4.184 50.6446 4.472C51.1993 4.76 51.6313 5.18667 51.9406 5.752C52.25 6.31733 52.4046 7 52.4046 7.8V13H50.5966V8.072C50.5966 7.28267 50.3993 6.68 50.0046 6.264C49.61 5.83733 49.0713 5.624 48.3886 5.624C47.706 5.624 47.162 5.83733 46.7566 6.264C46.362 6.68 46.1646 7.28267 46.1646 8.072V13H44.3406V4.184H46.1646V5.192C46.4633 4.82933 46.842 4.54667 47.3006 4.344C47.77 4.14133 48.266 4.04 48.7886 4.04ZM62.7153 4.184V13H60.8913V11.96C60.6033 12.3227 60.2246 12.6107 59.7553 12.824C59.2966 13.0267 58.8059 13.128 58.2833 13.128C57.5899 13.128 56.9659 12.984 56.4113 12.696C55.8673 12.408 55.4353 11.9813 55.1153 11.416C54.8059 10.8507 54.6513 10.168 54.6513 9.368V4.184H56.4593V9.096C56.4593 9.88533 56.6566 10.4933 57.0513 10.92C57.4459 11.336 57.9846 11.544 58.6673 11.544C59.3499 11.544 59.8886 11.336 60.2833 10.92C60.6886 10.4933 60.8913 9.88533 60.8913 9.096V4.184H62.7153ZM73.2019 8.376C73.2019 8.70667 73.1805 9.00533 73.1379 9.272H66.4019C66.4552 9.976 66.7165 10.5413 67.1859 10.968C67.6552 11.3947 68.2312 11.608 68.9139 11.608C69.8952 11.608 70.5885 11.1973 70.9939 10.376H72.9619C72.6952 11.1867 72.2099 11.8533 71.5059 12.376C70.8125 12.888 69.9485 13.144 68.9139 13.144C68.0712 13.144 67.3139 12.9573 66.6419 12.584C65.9805 12.2 65.4579 11.6667 65.0739 10.984C64.7005 10.2907 64.5139 9.49067 64.5139 8.584C64.5139 7.67733 64.6952 6.88267 65.0579 6.2C65.4312 5.50667 65.9485 4.97333 66.6099 4.6C67.2819 4.22667 68.0499 4.04 68.9139 4.04C69.7459 4.04 70.4872 4.22133 71.1379 4.584C71.7885 4.94667 72.2952 5.45867 72.6579 6.12C73.0205 6.77067 73.2019 7.52267 73.2019 8.376ZM71.2979 7.8C71.2872 7.128 71.0472 6.58933 70.5779 6.184C70.1085 5.77867 69.5272 5.576 68.8339 5.576C68.2045 5.576 67.6659 5.77867 67.2179 6.184C66.7699 6.57867 66.5032 7.11733 66.4179 7.8H71.2979ZM90.9931 4.184L88.2571 13H86.3371L84.5611 6.488L82.7851 13H80.8651L78.1131 4.184H79.9691L81.8091 11.272L83.6811 4.184H85.5851L87.3771 11.24L89.2011 4.184H90.9931ZM93.2843 3.016C92.9536 3.016 92.6763 2.904 92.4523 2.68C92.2283 2.456 92.1163 2.17867 92.1163 1.848C92.1163 1.51733 92.2283 1.24 92.4523 1.016C92.6763 0.791999 92.9536 0.679999 93.2843 0.679999C93.6043 0.679999 93.8763 0.791999 94.1003 1.016C94.3243 1.24 94.4363 1.51733 94.4363 1.848C94.4363 2.17867 94.3243 2.456 94.1003 2.68C93.8763 2.904 93.6043 3.016 93.2843 3.016ZM94.1803 4.184V13H92.3563V4.184H94.1803ZM98.703 5.672V10.552C98.703 10.8827 98.7777 11.1227 98.927 11.272C99.087 11.4107 99.3537 11.48 99.727 11.48H100.847V13H99.407C98.5857 13 97.9563 12.808 97.519 12.424C97.0817 12.04 96.863 11.416 96.863 10.552V5.672H95.823V4.184H96.863V1.992H98.703V4.184H100.847V5.672H98.703ZM107.088 4.04C107.76 4.04 108.357 4.184 108.88 4.472C109.413 4.76 109.829 5.18667 110.128 5.752C110.437 6.31733 110.592 7 110.592 7.8V13H108.784V8.072C108.784 7.28267 108.587 6.68 108.192 6.264C107.797 5.83733 107.259 5.624 106.576 5.624C105.893 5.624 105.349 5.83733 104.944 6.264C104.549 6.68 104.352 7.28267 104.352 8.072V13H102.528V1.16H104.352V5.208C104.661 4.83467 105.051 4.54667 105.52 4.344C106 4.14133 106.523 4.04 107.088 4.04Z" fill="white"/>
<path d="M125.123 5.08C124.835 4.52533 124.435 4.10933 123.923 3.832C123.411 3.544 122.819 3.4 122.147 3.4C121.411 3.4 120.755 3.56533 120.179 3.896C119.603 4.22667 119.15 4.696 118.819 5.304C118.499 5.912 118.339 6.616 118.339 7.416C118.339 8.216 118.499 8.92533 118.819 9.544C119.15 10.152 119.603 10.6213 120.179 10.952C120.755 11.2827 121.411 11.448 122.147 11.448C123.139 11.448 123.944 11.1707 124.563 10.616C125.182 10.0613 125.56 9.30933 125.699 8.36H121.523V6.904H127.651V8.328C127.534 9.192 127.224 9.98667 126.723 10.712C126.232 11.4373 125.587 12.0187 124.787 12.456C123.998 12.8827 123.118 13.096 122.147 13.096C121.102 13.096 120.147 12.856 119.283 12.376C118.419 11.8853 117.731 11.208 117.219 10.344C116.718 9.48 116.467 8.504 116.467 7.416C116.467 6.328 116.718 5.352 117.219 4.488C117.731 3.624 118.419 2.952 119.283 2.472C120.158 1.98133 121.112 1.736 122.147 1.736C123.331 1.736 124.382 2.02933 125.299 2.616C126.227 3.192 126.899 4.01333 127.315 5.08H125.123ZM153.408 4.04C154.091 4.04 154.694 4.17867 155.216 4.456C155.75 4.72267 156.166 5.05867 156.464 5.464V4.184H158.304V13.144C158.304 13.9547 158.134 14.6747 157.792 15.304C157.451 15.944 156.955 16.4453 156.304 16.808C155.664 17.1707 154.896 17.352 154 17.352C152.806 17.352 151.814 17.0693 151.024 16.504C150.235 15.9493 149.787 15.192 149.68 14.232H151.488C151.627 14.6907 151.92 15.0587 152.368 15.336C152.827 15.624 153.371 15.768 154 15.768C154.736 15.768 155.328 15.544 155.776 15.096C156.235 14.648 156.464 13.9973 156.464 13.144V11.672C156.155 12.088 155.734 12.44 155.2 12.728C154.678 13.0053 154.08 13.144 153.408 13.144C152.64 13.144 151.936 12.952 151.296 12.568C150.667 12.1733 150.166 11.6293 149.792 10.936C149.43 10.232 149.248 9.43733 149.248 8.552C149.248 7.66667 149.43 6.88267 149.792 6.2C150.166 5.51733 150.667 4.98933 151.296 4.616C151.936 4.232 152.64 4.04 153.408 4.04ZM156.464 8.584C156.464 7.976 156.336 7.448 156.08 7C155.835 6.552 155.51 6.21067 155.104 5.976C154.699 5.74133 154.262 5.624 153.792 5.624C153.323 5.624 152.886 5.74133 152.48 5.976C152.075 6.2 151.744 6.536 151.488 6.984C151.243 7.42133 151.12 7.944 151.12 8.552C151.12 9.16 151.243 9.69333 151.488 10.152C151.744 10.6107 152.075 10.9627 152.48 11.208C152.896 11.4427 153.334 11.56 153.792 11.56C154.262 11.56 154.699 11.4427 155.104 11.208C155.51 10.9733 155.835 10.632 156.08 10.184C156.336 9.72533 156.464 9.192 156.464 8.584Z" fill="#4285F4"/>
<path d="M133.274 13.144C132.442 13.144 131.69 12.9573 131.018 12.584C130.346 12.2 129.818 11.6667 129.434 10.984C129.05 10.2907 128.858 9.49067 128.858 8.584C128.858 7.688 129.055 6.89333 129.45 6.2C129.845 5.50667 130.383 4.97333 131.066 4.6C131.749 4.22667 132.511 4.04 133.354 4.04C134.197 4.04 134.959 4.22667 135.642 4.6C136.325 4.97333 136.863 5.50667 137.258 6.2C137.653 6.89333 137.85 7.688 137.85 8.584C137.85 9.48 137.647 10.2747 137.242 10.968C136.837 11.6613 136.282 12.2 135.578 12.584C134.885 12.9573 134.117 13.144 133.274 13.144ZM133.274 11.56C133.743 11.56 134.181 11.448 134.586 11.224C135.002 11 135.338 10.664 135.594 10.216C135.85 9.768 135.978 9.224 135.978 8.584C135.978 7.944 135.855 7.40533 135.61 6.968C135.365 6.52 135.039 6.184 134.634 5.96C134.229 5.736 133.791 5.624 133.322 5.624C132.853 5.624 132.415 5.736 132.01 5.96C131.615 6.184 131.301 6.52 131.066 6.968C130.831 7.40533 130.714 7.944 130.714 8.584C130.714 9.53333 130.954 10.2693 131.434 10.792C131.925 11.304 132.538 11.56 133.274 11.56ZM172.999 8.376C172.999 8.70667 172.977 9.00533 172.935 9.272H166.199C166.252 9.976 166.513 10.5413 166.983 10.968C167.452 11.3947 168.028 11.608 168.711 11.608C169.692 11.608 170.385 11.1973 170.791 10.376H172.759C172.492 11.1867 172.007 11.8533 171.303 12.376C170.609 12.888 169.745 13.144 168.711 13.144C167.868 13.144 167.111 12.9573 166.439 12.584C165.777 12.2 165.255 11.6667 164.871 10.984C164.497 10.2907 164.311 9.49067 164.311 8.584C164.311 7.67733 164.492 6.88267 164.855 6.2C165.228 5.50667 165.745 4.97333 166.407 4.6C167.079 4.22667 167.847 4.04 168.711 4.04C169.543 4.04 170.284 4.22133 170.935 4.584C171.585 4.94667 172.092 5.45867 172.455 6.12C172.817 6.77067 172.999 7.52267 172.999 8.376ZM171.095 7.8C171.084 7.128 170.844 6.58933 170.375 6.184C169.905 5.77867 169.324 5.576 168.631 5.576C168.001 5.576 167.463 5.77867 167.015 6.184C166.567 6.57867 166.3 7.11733 166.215 7.8H171.095Z" fill="#EA4335"/>
<path d="M143.477 13.144C142.645 13.144 141.893 12.9573 141.221 12.584C140.549 12.2 140.021 11.6667 139.637 10.984C139.253 10.2907 139.061 9.49067 139.061 8.584C139.061 7.688 139.258 6.89333 139.653 6.2C140.048 5.50667 140.586 4.97333 141.269 4.6C141.952 4.22667 142.714 4.04 143.557 4.04C144.4 4.04 145.162 4.22667 145.845 4.6C146.528 4.97333 147.066 5.50667 147.461 6.2C147.856 6.89333 148.053 7.688 148.053 8.584C148.053 9.48 147.85 10.2747 147.445 10.968C147.04 11.6613 146.485 12.2 145.781 12.584C145.088 12.9573 144.32 13.144 143.477 13.144ZM143.477 11.56C143.946 11.56 144.384 11.448 144.789 11.224C145.205 11 145.541 10.664 145.797 10.216C146.053 9.768 146.181 9.224 146.181 8.584C146.181 7.944 146.058 7.40533 145.813 6.968C145.568 6.52 145.242 6.184 144.837 5.96C144.432 5.736 143.994 5.624 143.525 5.624C143.056 5.624 142.618 5.736 142.213 5.96C141.818 6.184 141.504 6.52 141.269 6.968C141.034 7.40533 140.917 7.944 140.917 8.584C140.917 9.53333 141.157 10.2693 141.637 10.792C142.128 11.304 142.741 11.56 143.477 11.56Z" fill="#FBBC05"/>
<path d="M162.524 1.16V13H160.7V1.16H162.524Z" fill="#32A350"/>
</svg>
