<svg width="141" height="41" viewBox="0 0 141 41" fill="none" xmlns="http://www.w3.org/2000/svg">
<rect y="8" width="25" height="25" rx="4" fill="black"/>
<path d="M4.05682 16.2727H5.31818L8.28409 23.517H8.38636L11.3523 16.2727H12.6136V25H11.625V18.3693H11.5398L8.8125 25H7.85795L5.13068 18.3693H5.04545V25H4.05682V16.2727ZM14.7326 25V16.2727H17.7837C18.3917 16.2727 18.8931 16.3778 19.288 16.5881C19.6829 16.7955 19.9769 17.0753 20.1701 17.4276C20.3633 17.777 20.4599 18.1648 20.4599 18.5909C20.4599 18.9659 20.3931 19.2756 20.2596 19.5199C20.1289 19.7642 19.9556 19.9574 19.7397 20.0994C19.5266 20.2415 19.2951 20.3466 19.0451 20.4148V20.5C19.3121 20.517 19.5806 20.6108 19.8505 20.7812C20.1204 20.9517 20.3462 21.196 20.5281 21.5142C20.7099 21.8324 20.8008 22.2216 20.8008 22.6818C20.8008 23.1193 20.7013 23.5128 20.5025 23.8622C20.3036 24.2116 19.9897 24.4886 19.5607 24.6932C19.1317 24.8977 18.5735 25 17.886 25H14.7326ZM15.7894 24.0625H17.886C18.5763 24.0625 19.0664 23.929 19.3562 23.6619C19.6488 23.392 19.7951 23.0653 19.7951 22.6818C19.7951 22.3864 19.7198 22.1136 19.5692 21.8636C19.4187 21.6108 19.2042 21.4091 18.9258 21.2585C18.6474 21.1051 18.3178 21.0284 17.9371 21.0284H15.7894V24.0625ZM15.7894 20.108H17.7496C18.0678 20.108 18.3548 20.0455 18.6104 19.9205C18.869 19.7955 19.0735 19.6193 19.2241 19.392C19.3775 19.1648 19.4542 18.8977 19.4542 18.5909C19.4542 18.2074 19.3207 17.8821 19.0536 17.6151C18.7866 17.3452 18.3633 17.2102 17.7837 17.2102H15.7894V20.108Z" fill="white"/>
<path d="M34.2841 33V8.27273H36.5419V19.6101H50.5717V8.27273H52.8295V33H50.5717V21.6385H36.5419V33H34.2841ZM58.2831 33V14.4545H60.4443V33H58.2831ZM59.3818 11.267C58.9391 11.267 58.5608 11.1181 58.2468 10.8203C57.9329 10.5144 57.776 10.1482 57.776 9.72159C57.776 9.29498 57.9329 8.93276 58.2468 8.63494C58.5608 8.32907 58.9391 8.17613 59.3818 8.17613C59.8245 8.17613 60.2028 8.32907 60.5167 8.63494C60.8307 8.93276 60.9876 9.29498 60.9876 9.72159C60.9876 10.1482 60.8307 10.5144 60.5167 10.8203C60.2028 11.1181 59.8245 11.267 59.3818 11.267ZM77.9083 18.5234L75.9402 19.0788C75.7471 18.5234 75.4734 18.0204 75.1192 17.5696C74.7651 17.1188 74.3022 16.7607 73.7307 16.495C73.1673 16.2294 72.467 16.0966 71.6299 16.0966C70.3742 16.0966 69.3439 16.3944 68.539 16.9901C67.734 17.5857 67.3316 18.3544 67.3316 19.2962C67.3316 20.093 67.6053 20.741 68.1526 21.2401C68.708 21.7311 69.5612 22.1214 70.7123 22.4112L73.5134 23.0994C75.0669 23.4777 76.23 24.0774 77.0027 24.8984C77.7835 25.7195 78.1739 26.7498 78.1739 27.9893C78.1739 29.0357 77.8841 29.9654 77.3046 30.7784C76.725 31.5914 75.9161 32.2313 74.8777 32.6982C73.8474 33.157 72.6521 33.3864 71.2918 33.3864C69.4807 33.3864 67.9876 32.9799 66.8124 32.1669C65.6372 31.3459 64.8846 30.1626 64.5546 28.6172L66.6192 28.1101C66.8849 29.2128 67.404 30.0459 68.1768 30.6094C68.9575 31.1728 69.9838 31.4545 71.2556 31.4545C72.6803 31.4545 73.8193 31.1366 74.6725 30.5007C75.5257 29.8568 75.9523 29.0518 75.9523 28.0859C75.9523 27.3374 75.7028 26.7095 75.2037 26.2024C74.7047 25.6873 73.9481 25.3089 72.9339 25.0675L69.9033 24.343C68.2935 23.9567 67.1022 23.3449 66.3295 22.5078C65.5567 21.6707 65.1704 20.6323 65.1704 19.3928C65.1704 18.3705 65.4481 17.473 66.0035 16.7003C66.5589 15.9195 67.3235 15.3078 68.2975 14.8651C69.2715 14.4223 70.3822 14.201 71.6299 14.201C73.3283 14.201 74.6846 14.5874 75.6988 15.3601C76.721 16.1248 77.4575 17.1792 77.9083 18.5234ZM89.5044 14.4545V16.326H80.6542V14.4545H89.5044ZM83.4192 10.0114H85.5804V28.1584C85.5804 28.9311 85.7132 29.5388 85.9788 29.9815C86.2444 30.4162 86.5906 30.7261 87.0172 30.9112C87.4438 31.0883 87.8986 31.1768 88.3815 31.1768C88.6632 31.1768 88.9047 31.1607 89.106 31.1286C89.3072 31.0883 89.4843 31.0481 89.6372 31.0078L90.096 32.9517C89.8867 33.0322 89.6292 33.1046 89.3233 33.169C89.0174 33.2415 88.6391 33.2777 88.1883 33.2777C87.3995 33.2777 86.6389 33.1046 85.9064 32.7585C85.1819 32.4124 84.5863 31.8973 84.1194 31.2131C83.6526 30.5289 83.4192 29.6797 83.4192 28.6655V10.0114ZM100.714 33.3864C99.1123 33.3864 97.6957 32.9799 96.4641 32.1669C95.2406 31.3539 94.2828 30.2311 93.5905 28.7983C92.8983 27.3575 92.5522 25.6953 92.5522 23.8118C92.5522 21.9122 92.8983 20.242 93.5905 18.8011C94.2828 17.3523 95.2406 16.2254 96.4641 15.4205C97.6957 14.6075 99.1123 14.201 100.714 14.201C102.316 14.201 103.729 14.6075 104.952 15.4205C106.176 16.2334 107.133 17.3603 107.826 18.8011C108.526 20.242 108.876 21.9122 108.876 23.8118C108.876 25.6953 108.53 27.3575 107.838 28.7983C107.145 30.2311 106.184 31.3539 104.952 32.1669C103.729 32.9799 102.316 33.3864 100.714 33.3864ZM100.714 31.4183C102.002 31.4183 103.093 31.0722 103.986 30.38C104.88 29.6877 105.556 28.7661 106.015 27.6151C106.481 26.464 106.715 25.1963 106.715 23.8118C106.715 22.4273 106.481 21.1555 106.015 19.9964C105.556 18.8374 104.88 17.9077 103.986 17.2074C103.093 16.5071 102.002 16.157 100.714 16.157C99.4343 16.157 98.3436 16.5071 97.4421 17.2074C96.5486 17.9077 95.8685 18.8374 95.4016 19.9964C94.9428 21.1555 94.7134 22.4273 94.7134 23.8118C94.7134 25.1963 94.9428 26.464 95.4016 27.6151C95.8685 28.7661 96.5486 29.6877 97.4421 30.38C98.3356 31.0722 99.4262 31.4183 100.714 31.4183ZM112.914 33V14.4545H115.003V17.304H115.16C115.53 16.3703 116.174 15.6177 117.091 15.0462C118.017 14.4666 119.064 14.1768 120.231 14.1768C120.408 14.1768 120.605 14.1809 120.822 14.1889C121.04 14.197 121.221 14.205 121.366 14.2131V16.3984C121.269 16.3823 121.1 16.3582 120.859 16.326C120.617 16.2938 120.355 16.2777 120.074 16.2777C119.108 16.2777 118.247 16.483 117.49 16.8935C116.741 17.2959 116.15 17.8553 115.715 18.5717C115.28 19.2881 115.063 20.1051 115.063 21.0227V33H112.914ZM126.415 39.9545C125.988 39.9545 125.59 39.9143 125.219 39.8338C124.849 39.7533 124.555 39.6648 124.338 39.5682L124.918 37.6726C125.65 37.898 126.302 37.9785 126.873 37.9141C127.445 37.8577 127.952 37.6001 128.395 37.1413C128.837 36.6906 129.232 35.9983 129.578 35.0646L130.254 33.1811L123.432 14.4545H125.763L131.268 30.1626H131.437L136.943 14.4545H139.273L131.425 35.9339C131.095 36.8274 130.689 37.572 130.206 38.1676C129.723 38.7713 129.163 39.218 128.528 39.5078C127.9 39.8056 127.195 39.9545 126.415 39.9545Z" fill="black"/>
</svg>
