<svg width="25" height="25" viewBox="0 0 25 25" fill="none" xmlns="http://www.w3.org/2000/svg">
<rect width="25" height="25" rx="4" fill="white"/>
<path d="M4.05682 8.27273H5.31818L8.28409 15.517H8.38636L11.3523 8.27273H12.6136V17H11.625V10.3693H11.5398L8.8125 17H7.85795L5.13068 10.3693H5.04545V17H4.05682V8.27273ZM14.7326 17V8.27273H17.7837C18.3917 8.27273 18.8931 8.37784 19.288 8.58807C19.6829 8.79545 19.9769 9.07528 20.1701 9.42756C20.3633 9.77699 20.4599 10.1648 20.4599 10.5909C20.4599 10.9659 20.3931 11.2756 20.2596 11.5199C20.1289 11.7642 19.9556 11.9574 19.7397 12.0994C19.5266 12.2415 19.2951 12.3466 19.0451 12.4148V12.5C19.3121 12.517 19.5806 12.6108 19.8505 12.7812C20.1204 12.9517 20.3462 13.196 20.5281 13.5142C20.7099 13.8324 20.8008 14.2216 20.8008 14.6818C20.8008 15.1193 20.7013 15.5128 20.5025 15.8622C20.3036 16.2116 19.9897 16.4886 19.5607 16.6932C19.1317 16.8977 18.5735 17 17.886 17H14.7326ZM15.7894 16.0625H17.886C18.5763 16.0625 19.0664 15.929 19.3562 15.6619C19.6488 15.392 19.7951 15.0653 19.7951 14.6818C19.7951 14.3864 19.7198 14.1136 19.5692 13.8636C19.4187 13.6108 19.2042 13.4091 18.9258 13.2585C18.6474 13.1051 18.3178 13.0284 17.9371 13.0284H15.7894V16.0625ZM15.7894 12.108H17.7496C18.0678 12.108 18.3548 12.0455 18.6104 11.9205C18.869 11.7955 19.0735 11.6193 19.2241 11.392C19.3775 11.1648 19.4542 10.8977 19.4542 10.5909C19.4542 10.2074 19.3207 9.8821 19.0536 9.61506C18.7866 9.34517 18.3633 9.21023 17.7837 9.21023H15.7894V12.108Z" fill="black"/>
</svg>
